<svg viewBox="0 0 55 55" fill="none" xmlns="http://www.w3.org/2000/svg"><path d="M34 14.7c1.1 0 2.1.7 2.5 1.8H46a2.7 2.7 0 1 1 0 1.8h-9.5a2.7 2.7 0 1 1-2.6-3.6Zm14.6 3.6a1 1 0 1 0 0-1.8 1 1 0 0 0 0 1.8Zm-14.7 0a1 1 0 1 0 0-1.8 1 1 0 0 0 0 1.8Z" fill="#00B2FF"/><path d="M26.6 20.3v-5.6c0-.3 0-.5.3-.7l3.6-3.6c.2-.2.4-.3.7-.3H34a2.7 2.7 0 1 1 0 1.8h-2.6l-3 3.1v5.3a2.7 2.7 0 1 1-2 0Zm10-8.4a1 1 0 1 0 0-1.8 1 1 0 0 0 0 1.8Zm-9.1 12a1 1 0 1 0 0-1.9 1 1 0 0 0 0 1.8ZM10 23.8c.5 0 .9.1 1.3.3l1.5-1.6v-8.8l.3-.6 9.2-9.2c-.2-.3-.3-.7-.3-1.2a2.8 2.8 0 1 1 2.8 2.8c-.5 0-.9-.1-1.2-.3l-9 9v8.7c0 .3 0 .5-.2.7l-1.8 1.8.2 1.2a2.8 2.8 0 1 1-2.7-2.8ZM24.9 3.7a1 1 0 1 0 0-1.9 1 1 0 0 0 0 1.9ZM10 27.5a1 1 0 1 0 0-1.8 1 1 0 0 0 0 1.8ZM1.8 13V9.2c0-.3.1-.5.3-.7l6.4-6.4c.2-.2.4-.3.7-.3h4.7a2.7 2.7 0 1 1 0 1.9H9.5L3.7 9.5V13a2.7 2.7 0 1 1-1.9 0Zm14.7-9.3a1 1 0 1 0 0-1.9 1 1 0 0 0 0 1.9ZM2.8 16.5a1 1 0 1 0 0-1.8 1 1 0 0 0 0 1.8Zm11.9 33.2V36.5a2.7 2.7 0 1 1 3.5-3.5h9.5c.3-1 1.4-1.8 2.6-1.8 1.1 0 2.2.7 2.5 1.8h5.3l3.4-3.4-.3-1.2a2.8 2.8 0 1 1 2.8 2.8l-1.2-.3-3.7 3.7a1 1 0 0 1-.6.2h-5.7a2.7 2.7 0 0 1-2.5 1.9c-1.2 0-2.3-.8-2.6-1.9h-9.5c-.3.8-1 1.4-1.7 1.7v13.2a2.7 2.7 0 1 1-1.8 0ZM44 29.3a1 1 0 1 0 0-1.8 1 1 0 0 0 0 1.8Zm-13.8 5.5a1 1 0 1 0 0-1.8 1 1 0 0 0 0 1.8ZM15.7 53.2a1 1 0 1 0 0-1.9 1 1 0 0 0 0 1.9Zm0-18.4a1 1 0 1 0 0-1.8 1 1 0 0 0 0 1.8Z" fill="#00B2FF"/><path d="M19.3 18.5v-3c0-.2 0-.4.2-.6l11-11c-.1-.3-.3-.7-.3-1.2A3 3 0 0 1 33 0c1.2 0 2.2.8 2.6 1.8h3.8c.5 0 1 .4 1 1V5l3.3 3.4 1.2-.3a2.8 2.8 0 1 1-2.7 2.8c0-.4 0-.8.2-1.2L38.8 6a1 1 0 0 1-.3-.6V3.7h-3a2.7 2.7 0 0 1-3.7 1.5L21.1 16v2.5a2.7 2.7 0 1 1-1.9 0Zm25.6-6.6a1 1 0 1 0 0-1.8 1 1 0 0 0 0 1.8ZM33 3.7a1 1 0 1 0 0-1.9 1 1 0 0 0 0 1.9ZM20.2 22a1 1 0 1 0 0-1.8 1 1 0 0 0 0 1.8Z" fill="#00B2FF"/><path d="M22 25.7c1.2 0 2.2.7 2.6 1.8h10.8l5.2-5.2.6-.3H51l2.2-2.2v-7.5l-7.1-7-1.2.2a2.8 2.8 0 1 1 2.8-2.8c0 .5-.1.9-.3 1.2l7.3 7.4c.2.1.3.4.3.6v8.3l-.3.6-2.7 2.8a1 1 0 0 1-.7.2h-9.7l-5.2 5.3a1 1 0 0 1-.6.2H24.6a2.7 2.7 0 1 1-2.6-3.6ZM45 1.8a1 1 0 1 0 0 1.9 1 1 0 0 0 0-1.9ZM22 29.3a1 1 0 1 0 0-1.8 1 1 0 0 0 0 1.8ZM2.8 22c.4 0 .8.1 1.1.3l3.4-3.4v-5.3a2.7 2.7 0 1 1 1.9 0v5.6c0 .3-.1.5-.3.7l-3.7 3.7a2.7 2.7 0 0 1-1.5 3.7v.7l7 7.1.3.6v1.1c1 .4 1.8 1.4 1.8 2.6 0 1.2-.7 2.2-1.8 2.6v2.2a2.7 2.7 0 1 1-1.8 0V42a2.8 2.8 0 0 1-1.9-2.6c0-1.2.8-2.2 1.9-2.6v-.7l-7.1-7a1 1 0 0 1-.3-.7v-1a2.7 2.7 0 0 1 1-5.4Zm5.5-10a1 1 0 1 0 0-2 1 1 0 0 0 0 2ZM10 47.6a1 1 0 1 0 0-1.9 1 1 0 0 0 0 1.9Zm0-7.4a1 1 0 1 0 0-1.8 1 1 0 0 0 0 1.8ZM2.8 25.7a1 1 0 1 0 0-1.9 1 1 0 0 0 0 1.9Z" fill="#00B2FF"/></svg>