<svg viewBox="0 0 35 35" fill="none" xmlns="http://www.w3.org/2000/svg"><path d="m3.8 11.7-1.7-1.5c-1-.8-1-2.1 0-3a3 3 0 0 1 3.5 0L7.5 9c2-1.2 4.3-2 6.7-2.3v-2h-1.7a.8.8 0 0 1-.8-.8V2.1c0-1.2 1-2.1 2.5-2.1h6.6c1.4 0 2.5 1 2.5 2v1.8c0 .4-.3.7-.8.7h-1.7v2c2.4.4 4.7 1.2 6.7 2.4l2-1.6a3 3 0 0 1 3.4 0c1 .8 1 2 0 2.9l-1.7 1.5a13 13 0 0 1 3.8 9C35 28.5 27.1 35 17.5 35S0 28.6 0 20.6c0-3.2 1.4-6.4 3.8-9Zm.6-3.4a1 1 0 0 0-1.2 0c-.3.2-.3.7 0 1L5 10.5l1.2-.9-1.8-1.4ZM21.7 2c0-.4-.4-.7-.9-.7h-6.6c-.5 0-.9.3-.9.7v1h8.4V2Zm-5.9 2.4v1.9h3.4V4.5h-3.4Zm16 3.8a1 1 0 0 0-1.2 0l-1.8 1.4c.5.3.9.6 1.2 1l1.8-1.5c.3-.2.3-.7 0-1ZM17.5 33.6c8.7 0 15.8-5.8 15.8-13 0-3.1-1.4-6.2-3.9-8.5a13 13 0 0 0-2.3-1.8 17.8 17.8 0 0 0-12-2.5 17.8 17.8 0 0 0-9.5 4.3c-2.5 2.3-4 5.4-4 8.5 0 7.2 7.2 13 15.9 13Z" fill="currentColor"/><path d="M17.5 22.7c-1.4 0-2.5-1-2.5-2s.7-1.7 1.7-2v-4.9c0-.4.3-.7.8-.7s.8.3.8.7v5c1 .2 1.7 1 1.7 1.8 0 1.2-1.1 2.1-2.5 2.1Zm0-2.7c-.5 0-.8.3-.8.6 0 .4.3.7.8.7s.8-.3.8-.7c0-.3-.3-.6-.8-.6Z" fill="currentColor"/><path d="M8.6 13.4h.1c1.5-1.2 3.3-2.1 5.3-2.6.4-.1.9.1 1 .5.1.3-.1.7-.6.8-1.4.4-2.8 1-4 1.8l.6.5c.3.2.3.7 0 1a1 1 0 0 1-.6.1 1 1 0 0 1-.6-.2l-.5-.4a8 8 0 0 0-2.6 5h.8c.5 0 .8.4.8.7 0 .4-.3.7-.8.7h-.8a8 8 0 0 0 2.6 5.1l.5-.4a1 1 0 0 1 1.2 0c.3.2.3.7 0 1l-.5.4c1.7 1.2 3.9 2 6.2 2.1v-.7c0-.3.3-.6.8-.6s.8.3.8.6v.7a12 12 0 0 0 6.2-2.1l-.5-.5a.6.6 0 0 1 0-1 1 1 0 0 1 1.2 0l.5.5a8 8 0 0 0 2.6-5h-.8a.8.8 0 0 1-.8-.8c0-.3.3-.6.8-.6h.8a8 8 0 0 0-2.6-5.1l-.5.4a1 1 0 0 1-.6.2 1 1 0 0 1-.6-.2.6.6 0 0 1 0-1l.5-.4c-1.1-.8-2.5-1.4-4-1.8-.4 0-.6-.5-.5-.8.1-.4.6-.6 1-.5a13.3 13.3 0 0 1 5.3 2.6c2.4 2 3.7 4.5 3.7 7.2a9.3 9.3 0 0 1-3.7 7.3 14 14 0 0 1-8.8 3 14 14 0 0 1-8.8-3A9.3 9.3 0 0 1 5 20.6c0-2.7 1.3-5.2 3.6-7.2Z" fill="currentColor"/><path d="M17.5 11.8c-.5 0-.8-.3-.8-.7 0-.4.3-.7.8-.7s.8.3.8.7c0 .4-.3.7-.8.7Z" fill="currentColor"/></svg>
