<svg xmlns="http://www.w3.org/2000/svg" xmlns:xlink="http://www.w3.org/1999/xlink"><symbol id="detective" viewBox="0 0 35 35"><g fill="none"><path d="M17.5 11.02c-.38 0-.68.36-.68.8 0 .44.3.8.68.8.38 0 .68-.36.68-.8 0-.44-.3-.8-.68-.8Z" fill="currentColor"/><path d="M32.95 15.81h-2.66C28.89 11.13 26.85 2.92 23.17.6c-1.85-1.16-3.59-.35-4.24 1.3-.28.7-.84 1.06-1.43 1.06-.6 0-1.15-.37-1.43-1.06-.63-1.6-2.33-2.48-4.1-1.47C8.21 2.56 6.11 11.1 4.7 15.8H2.05C.92 15.81 0 16.9 0 18.21c0 1.32.92 2.4 2.05 2.4h30.9c1.13 0 2.05-1.07 2.05-2.4 0-1.32-.92-2.4-2.05-2.4ZM7.1 12.61h7.66c.37 0 .68-.35.68-.8 0-.43-.3-.8-.68-.8H7.59c2.06-6.65 3.99-8.58 4.97-9.14 1.07-.61 1.96-.1 2.27.7.5 1.26 1.54 2 2.67 2s2.17-.74 2.67-2c.32-.82 1.21-1.28 2.35-.56.99.62 2.9 2.62 4.89 9h-7.18c-.37 0-.68.37-.68.8 0 .45.3.8.68.8h7.66l.95 3.2H6.16l.95-3.2Zm25.84 6.4H2.05c-.38 0-.68-.36-.68-.8 0-.44.3-.8.68-.8h30.9c.38 0 .68.36.68.8 0 .44-.3.8-.68.8ZM16.13 23.8H5.2c-.38 0-.69.37-.69.8v3.2c0 3.97 2.76 7.2 6.15 7.2 2.57 0 4.85-1.85 5.75-4.63a2.28 2.28 0 0 1 2.18 0c.9 2.78 3.18 4.63 5.75 4.63 3.39 0 6.15-3.23 6.15-7.2v-3.2c0-.43-.3-.8-.69-.8H18.87c-.38 0-.69.37-.69.8v.8h-1.36v-.8c0-.43-.31-.8-.69-.8Zm-5.47 9.6c-2.63 0-4.78-2.5-4.78-5.6v-2.4h9.57v2.4c0 3.1-2.14 5.6-4.79 5.6Zm8.9-8h9.56v2.4c0 3.1-2.15 5.6-4.78 5.6-2.66 0-4.79-2.5-4.79-5.6v-2.4ZM18.17 27v.8c0 .26.02.52.04.77-.48-.1-.96-.1-1.44 0 .02-.25.04-.5.04-.76V27h1.36Z" fill="currentColor"/><path d="M10.66 30.2c-1.13 0-2.05-1.07-2.05-2.4 0-.44-.3-.8-.68-.8-.38 0-.68.36-.68.8 0 2.2 1.53 4 3.41 4 .38 0 .69-.36.69-.8 0-.44-.3-.8-.69-.8ZM24.34 31.8c1.88 0 3.41-1.8 3.41-4 0-.44-.3-.8-.68-.8-.38 0-.68.36-.68.8 0 1.33-.92 2.4-2.05 2.4-.38 0-.69.36-.69.8 0 .44.3.8.69.8Z" fill="currentColor"/></g></symbol><symbol id="email"><g fill="none"><path fill="#00B2FF" d="M18.058 0H2.946C1.596 0 .5 1.441.5 3.214v13.572C.5 18.56 1.597 20 2.946 20h15.108c1.35 0 2.446-1.441 2.446-3.214V3.22C20.504 1.446 19.407 0 18.058 0Zm1.329 16.786c0 .963-.596 1.746-1.329 1.746H2.946c-.733 0-1.329-.783-1.329-1.746V3.22c0-.962.596-1.745 1.329-1.745h15.108c.733 0 1.329.783 1.329 1.745v13.567h.004Z"/><path fill="#00B2FF" d="m13.113 9.831 4.892-5.764c.227-.271.248-.734.041-1.038-.207-.3-.559-.326-.79-.055L10.51 10.93 9.194 9.386c-.004-.006-.008-.011-.008-.017a.946.946 0 0 0-.09-.103L3.74 2.969c-.231-.272-.583-.245-.79.06-.207.304-.186.767.045 1.038l4.95 5.813-4.929 6.063c-.223.278-.236.74-.025 1.04.112.151.261.233.41.233a.495.495 0 0 0 .38-.196l5.004-6.15 1.357 1.593a.49.49 0 0 0 .373.185.49.49 0 0 0 .372-.19l1.395-1.642 4.974 6.21a.493.493 0 0 0 .384.2.505.505 0 0 0 .406-.228c.211-.293.203-.76-.02-1.038L13.112 9.83Z"/></g></symbol><symbol id="icon-close" viewBox="0 0 20 20"><g fill="none"><path fill-rule="evenodd" clip-rule="evenodd" d="M.18 1.03a.6.6 0 0 1 .85-.85L10 9.15 18.97.18a.6.6 0 0 1 .85.85L10.85 10l8.97 8.97a.6.6 0 1 1-.85.85L10 10.85l-8.97 8.97a.6.6 0 1 1-.85-.85L9.15 10 .18 1.03Z" fill="#fff"/></g></symbol><symbol id="logo-text" viewBox="0 0 133 40"><g fill="none">
<path d="M8.95996 14.3247C8.95996 14.0073 8.93148 13.7184 8.87451 13.458C8.81755 13.1976 8.69548 12.9575 8.5083 12.7378C8.32926 12.5181 8.06478 12.2983 7.71484 12.0786C7.37305 11.8589 6.92546 11.631 6.37207 11.395C5.71289 11.1183 5.07406 10.8254 4.45557 10.5161C3.83708 10.1987 3.27962 9.83252 2.7832 9.41748C2.28678 9.00244 1.89209 8.51416 1.59912 7.95264C1.31429 7.38298 1.17188 6.71566 1.17188 5.95068C1.17188 5.20199 1.30615 4.52246 1.57471 3.91211C1.8514 3.30176 2.24202 2.78092 2.74658 2.34961C3.25114 1.91016 3.84115 1.57243 4.5166 1.33643C5.2002 1.10042 5.9611 0.982422 6.79932 0.982422C7.93864 0.982422 8.92334 1.21842 9.75342 1.69043C10.5916 2.16243 11.2386 2.80941 11.6943 3.63135C12.1582 4.45329 12.3901 5.3973 12.3901 6.46338H8.82568C8.82568 5.95882 8.75244 5.5153 8.60596 5.13281C8.46761 4.74219 8.24382 4.43701 7.93457 4.21729C7.62533 3.99756 7.22656 3.8877 6.73828 3.8877C6.28255 3.8877 5.90413 3.98128 5.60303 4.16846C5.31006 4.34749 5.09033 4.5957 4.94385 4.91309C4.8055 5.22233 4.73633 5.57227 4.73633 5.96289C4.73633 6.25586 4.8055 6.52035 4.94385 6.75635C5.09033 6.98421 5.28971 7.19173 5.54199 7.37891C5.79427 7.55794 6.09131 7.73291 6.43311 7.90381C6.78304 8.07471 7.16553 8.24154 7.58057 8.4043C8.38623 8.72168 9.09831 9.07161 9.7168 9.4541C10.3353 9.82845 10.8521 10.2516 11.2671 10.7236C11.6821 11.1875 11.9954 11.7124 12.207 12.2983C12.4186 12.8843 12.5244 13.5516 12.5244 14.3003C12.5244 15.0409 12.3942 15.7163 12.1338 16.3267C11.8815 16.9289 11.5112 17.4497 11.0229 17.8892C10.5347 18.3205 9.94466 18.6541 9.25293 18.8901C8.56934 19.1261 7.80436 19.2441 6.95801 19.2441C6.13607 19.2441 5.35889 19.1302 4.62646 18.9023C3.89404 18.6663 3.24707 18.3123 2.68555 17.8403C2.13216 17.3602 1.69678 16.7539 1.37939 16.0215C1.06201 15.2809 0.90332 14.4061 0.90332 13.397H4.47998C4.47998 13.9341 4.53288 14.3939 4.63867 14.7764C4.74447 15.1507 4.90723 15.4518 5.12695 15.6797C5.34668 15.8994 5.61523 16.0662 5.93262 16.1802C6.25814 16.286 6.62842 16.3389 7.04346 16.3389C7.51546 16.3389 7.88981 16.2493 8.1665 16.0703C8.45133 15.8913 8.65479 15.6512 8.77686 15.3501C8.89893 15.049 8.95996 14.7072 8.95996 14.3247Z" fill="#F2F5F7"/>
<path d="M18.2129 8.52637V19H14.7827V5.79199H18.0054L18.2129 8.52637ZM17.7246 11.9443L16.7847 11.9688C16.7684 11.041 16.8498 10.1865 17.0288 9.40527C17.2078 8.62402 17.4764 7.9445 17.8345 7.3667C18.2007 6.7889 18.6605 6.34131 19.2139 6.02393C19.7673 5.70654 20.4142 5.54785 21.1548 5.54785C21.6349 5.54785 22.0785 5.63737 22.4854 5.81641C22.8923 5.9873 23.2463 6.25993 23.5474 6.63428C23.8485 7.00049 24.0804 7.48063 24.2432 8.07471C24.4059 8.66064 24.4873 9.36458 24.4873 10.1865V19H21.0693V10.6016C21.0693 10.0156 21.0124 9.56803 20.8984 9.25879C20.7845 8.94141 20.6217 8.72168 20.4102 8.59961C20.1986 8.4694 19.9382 8.4043 19.6289 8.4043C19.3034 8.4043 19.0186 8.49382 18.7744 8.67285C18.5303 8.85189 18.3309 9.10417 18.1763 9.42969C18.0298 9.74707 17.9159 10.1214 17.8345 10.5527C17.7612 10.984 17.7246 11.4479 17.7246 11.9443ZM24.1577 11.6025L22.9248 11.7612C22.9085 10.8905 22.9858 10.0807 23.1567 9.33203C23.3276 8.5752 23.5921 7.91602 23.9502 7.35449C24.3083 6.78483 24.7559 6.34131 25.293 6.02393C25.8382 5.70654 26.4689 5.54785 27.1851 5.54785C27.7222 5.54785 28.2104 5.63737 28.6499 5.81641C29.0894 5.99544 29.4637 6.28434 29.7729 6.68311C30.0903 7.07373 30.3304 7.59049 30.4932 8.2334C30.6641 8.8763 30.7495 9.65755 30.7495 10.5771V19H27.3193V10.5894C27.3193 9.99528 27.2624 9.53955 27.1484 9.22217C27.0345 8.90479 26.8717 8.68913 26.6602 8.5752C26.4486 8.46126 26.1963 8.4043 25.9033 8.4043C25.6104 8.4043 25.354 8.48568 25.1343 8.64844C24.9227 8.8112 24.7437 9.03906 24.5972 9.33203C24.4507 9.61686 24.3408 9.95459 24.2676 10.3452C24.1943 10.7277 24.1577 11.1468 24.1577 11.6025Z" fill="#F2F5F7"/>
<path d="M39.1479 15.9604V9.85693C39.1479 9.45817 39.0991 9.14079 39.0015 8.90479C38.9119 8.66878 38.7736 8.49788 38.5864 8.39209C38.4074 8.27816 38.1877 8.22119 37.9272 8.22119C37.6343 8.22119 37.3901 8.28223 37.1948 8.4043C36.9995 8.52637 36.853 8.70133 36.7554 8.9292C36.6659 9.15706 36.6211 9.42969 36.6211 9.74707H33.1909C33.1909 9.17741 33.3008 8.6403 33.5205 8.13574C33.7402 7.62305 34.0617 7.17546 34.4849 6.79297C34.9162 6.40234 35.4289 6.09717 36.0229 5.87744C36.617 5.65771 37.2843 5.54785 38.0249 5.54785C38.9038 5.54785 39.6851 5.6984 40.3687 5.99951C41.0522 6.29248 41.5934 6.76042 41.9922 7.40332C42.391 8.04622 42.5903 8.88037 42.5903 9.90576V15.7896C42.5903 16.5301 42.627 17.1323 42.7002 17.5962C42.7816 18.0601 42.8996 18.4588 43.0542 18.7925V19H39.6118C39.4572 18.6338 39.3392 18.1781 39.2578 17.6328C39.1846 17.0794 39.1479 16.522 39.1479 15.9604ZM39.563 10.9312L39.5752 12.9819H38.3179C37.9924 12.9819 37.7075 13.0348 37.4634 13.1406C37.2274 13.2464 37.028 13.397 36.8652 13.5923C36.7025 13.7795 36.5804 13.9992 36.499 14.2515C36.4258 14.5037 36.3892 14.7723 36.3892 15.0571C36.3892 15.3745 36.4339 15.6431 36.5234 15.8628C36.613 16.0825 36.7472 16.2493 36.9263 16.3633C37.1053 16.4772 37.3169 16.5342 37.561 16.5342C37.9354 16.5342 38.2609 16.4569 38.5376 16.3022C38.8143 16.1476 39.0177 15.9604 39.1479 15.7407C39.2863 15.521 39.3311 15.3175 39.2822 15.1304L40.0635 16.4609C39.9658 16.762 39.8315 17.0754 39.6606 17.4009C39.4979 17.7264 39.2904 18.0275 39.0381 18.3042C38.7858 18.5809 38.4725 18.8088 38.0981 18.9878C37.7319 19.1587 37.2965 19.2441 36.792 19.2441C36.084 19.2441 35.437 19.0814 34.8511 18.7559C34.2651 18.4303 33.8013 17.9746 33.4595 17.3887C33.1258 16.8027 32.959 16.1069 32.959 15.3013C32.959 14.634 33.0648 14.0317 33.2764 13.4946C33.4961 12.9494 33.8216 12.4896 34.2529 12.1152C34.6842 11.7327 35.2295 11.4398 35.8887 11.2363C36.5479 11.0329 37.321 10.9312 38.208 10.9312H39.563Z" fill="#F2F5F7"/>
<path d="M48.5352 8.73389V19H45.1172V5.79199H48.3398L48.5352 8.73389ZM51.6479 5.69434L51.5991 9.1001C51.4445 9.06755 51.2573 9.04313 51.0376 9.02686C50.826 9.01058 50.6388 9.00244 50.4761 9.00244C50.0936 9.00244 49.7681 9.06348 49.4995 9.18555C49.231 9.29948 49.0072 9.47445 48.8281 9.71045C48.6572 9.93831 48.527 10.2231 48.4375 10.5649C48.348 10.9067 48.2951 11.2933 48.2788 11.7246L47.6318 11.4805C47.6318 10.6178 47.6969 9.82845 47.8271 9.1123C47.9655 8.38802 48.1689 7.76139 48.4375 7.23242C48.7061 6.69531 49.0275 6.28027 49.4019 5.9873C49.7843 5.69434 50.2157 5.54785 50.6958 5.54785C50.8586 5.54785 51.0295 5.56413 51.2085 5.59668C51.3957 5.62109 51.5422 5.65365 51.6479 5.69434Z" fill="#F2F5F7"/>
<path d="M59.7656 5.79199V8.36768H53.0273V5.79199H59.7656ZM54.5776 2.53271H57.9834V14.9717C57.9834 15.3379 58.02 15.6187 58.0933 15.814C58.1665 16.0093 58.2764 16.1476 58.4229 16.229C58.5775 16.3022 58.7809 16.3389 59.0332 16.3389C59.2041 16.3389 59.3628 16.3307 59.5093 16.3145C59.6558 16.29 59.7656 16.2656 59.8389 16.2412V18.9146C59.5703 19.0203 59.2855 19.1017 58.9844 19.1587C58.6914 19.2157 58.3415 19.2441 57.9346 19.2441C57.251 19.2441 56.6569 19.1139 56.1523 18.8535C55.6559 18.5931 55.2694 18.1781 54.9927 17.6084C54.716 17.0306 54.5776 16.2738 54.5776 15.3379V2.53271Z" fill="#F2F5F7"/>
<path d="M72.2412 19H69.104L69.1284 16.0459H72.2412C73.1038 16.0459 73.7752 15.8913 74.2554 15.582C74.7355 15.2728 75.0732 14.7845 75.2686 14.1172C75.472 13.4499 75.5737 12.575 75.5737 11.4927V8.72168C75.5737 7.89974 75.5208 7.20394 75.415 6.63428C75.3092 6.05648 75.1302 5.59261 74.8779 5.24268C74.6257 4.8846 74.2879 4.62012 73.8647 4.44922C73.4416 4.27832 72.9167 4.19287 72.29 4.19287H69.043V1.22656H72.29C73.3154 1.22656 74.2472 1.39339 75.0854 1.72705C75.9237 2.06071 76.6439 2.54899 77.2461 3.19189C77.8483 3.82666 78.3122 4.61198 78.6377 5.54785C78.9632 6.48372 79.126 7.5498 79.126 8.74609V11.4927C79.126 12.6971 78.9632 13.7632 78.6377 14.6909C78.3122 15.6187 77.8483 16.404 77.2461 17.0469C76.652 17.6816 75.9318 18.1659 75.0854 18.4995C74.2391 18.8332 73.291 19 72.2412 19ZM71.1792 1.22656V19H67.6025V1.22656H71.1792Z" fill="#F2F5F7"/>
<path d="M86.8896 19.2441C85.9863 19.2441 85.1847 19.1058 84.4849 18.8291C83.7931 18.5524 83.2072 18.1536 82.7271 17.6328C82.2469 17.1038 81.8807 16.465 81.6284 15.7163C81.3761 14.9676 81.25 14.1131 81.25 13.1528V12.0664C81.25 10.9922 81.3721 10.0522 81.6162 9.24658C81.8604 8.43278 82.2062 7.74919 82.6538 7.1958C83.1014 6.64242 83.6507 6.23145 84.3018 5.96289C84.9609 5.6862 85.7056 5.54785 86.5356 5.54785C87.3657 5.54785 88.0941 5.6862 88.7207 5.96289C89.3555 6.23145 89.8804 6.63835 90.2954 7.18359C90.7104 7.7207 91.0238 8.38802 91.2354 9.18555C91.4469 9.98307 91.5527 10.9108 91.5527 11.9688V13.5312H82.7026V11.1265H88.1958V10.8213C88.1958 10.2842 88.1388 9.83659 88.0249 9.47852C87.911 9.1123 87.7319 8.83968 87.4878 8.66064C87.2437 8.48161 86.9181 8.39209 86.5112 8.39209C86.1694 8.39209 85.8805 8.46126 85.6445 8.59961C85.4085 8.73796 85.2214 8.95361 85.083 9.24658C84.9447 9.53955 84.8429 9.92204 84.7778 10.394C84.7127 10.8579 84.6802 11.4154 84.6802 12.0664V13.1528C84.6802 13.7632 84.7331 14.2759 84.8389 14.6909C84.9447 15.0978 85.0993 15.4315 85.3027 15.6919C85.5143 15.9442 85.7707 16.1273 86.0718 16.2412C86.3729 16.347 86.7228 16.3999 87.1216 16.3999C87.7238 16.3999 88.265 16.2941 88.7451 16.0825C89.2334 15.8628 89.6484 15.5658 89.9902 15.1914L91.3574 17.2666C91.1214 17.5758 90.7959 17.8851 90.3809 18.1943C89.9658 18.5036 89.4694 18.7559 88.8916 18.9512C88.3138 19.1465 87.6465 19.2441 86.8896 19.2441Z" fill="#F2F5F7"/>
<path d="M97.2534 16.3633L99.3774 5.79199H102.942L99.3164 19H97.1802L97.2534 16.3633ZM95.9961 5.79199L98.1567 16.3755L98.1934 19H96.0449L92.4194 5.79199H95.9961Z" fill="#F2F5F7"/>
<path d="M108.179 5.79199V19H104.749V5.79199H108.179ZM104.59 2.37402C104.59 1.84505 104.757 1.40967 105.09 1.06787C105.432 0.717936 105.888 0.542969 106.458 0.542969C107.035 0.542969 107.491 0.717936 107.825 1.06787C108.158 1.40967 108.325 1.84505 108.325 2.37402C108.325 2.89486 108.154 3.33024 107.812 3.68018C107.479 4.02197 107.031 4.19287 106.47 4.19287C105.892 4.19287 105.432 4.02197 105.09 3.68018C104.757 3.33024 104.59 2.89486 104.59 2.37402Z" fill="#F2F5F7"/>
<path d="M115.662 16.3999C115.979 16.3999 116.252 16.3348 116.479 16.2046C116.715 16.0744 116.895 15.8628 117.017 15.5698C117.139 15.2769 117.204 14.8984 117.212 14.4346H120.422C120.422 15.4274 120.211 16.286 119.788 17.0103C119.373 17.7264 118.811 18.2798 118.103 18.6704C117.403 19.0529 116.61 19.2441 115.723 19.2441C114.836 19.2441 114.062 19.1017 113.403 18.8169C112.744 18.5321 112.199 18.117 111.768 17.5718C111.344 17.0265 111.023 16.3633 110.803 15.582C110.592 14.7926 110.486 13.8893 110.486 12.8721V11.9077C110.486 10.9067 110.592 10.0116 110.803 9.22217C111.023 8.43278 111.344 7.76546 111.768 7.22021C112.199 6.67497 112.74 6.25993 113.391 5.9751C114.05 5.69027 114.823 5.54785 115.71 5.54785C116.663 5.54785 117.489 5.74723 118.188 6.146C118.888 6.53662 119.434 7.11442 119.824 7.87939C120.223 8.64437 120.422 9.58838 120.422 10.7114H117.212C117.204 10.2069 117.143 9.78776 117.029 9.4541C116.923 9.1123 116.756 8.85189 116.528 8.67285C116.309 8.48568 116.016 8.39209 115.649 8.39209C115.267 8.39209 114.958 8.47347 114.722 8.63623C114.494 8.79085 114.319 9.01872 114.197 9.31982C114.083 9.61279 114.006 9.979 113.965 10.4185C113.924 10.8579 113.904 11.3543 113.904 11.9077V12.8721C113.904 13.4661 113.92 13.9829 113.953 14.4224C113.993 14.8537 114.071 15.2199 114.185 15.521C114.307 15.814 114.482 16.0337 114.709 16.1802C114.945 16.3267 115.263 16.3999 115.662 16.3999Z" fill="#F2F5F7"/>
<path d="M127.71 19.2441C126.807 19.2441 126.005 19.1058 125.305 18.8291C124.613 18.5524 124.028 18.1536 123.547 17.6328C123.067 17.1038 122.701 16.465 122.449 15.7163C122.196 14.9676 122.07 14.1131 122.07 13.1528V12.0664C122.07 10.9922 122.192 10.0522 122.437 9.24658C122.681 8.43278 123.027 7.74919 123.474 7.1958C123.922 6.64242 124.471 6.23145 125.122 5.96289C125.781 5.6862 126.526 5.54785 127.356 5.54785C128.186 5.54785 128.914 5.6862 129.541 5.96289C130.176 6.23145 130.701 6.63835 131.116 7.18359C131.531 7.7207 131.844 8.38802 132.056 9.18555C132.267 9.98307 132.373 10.9108 132.373 11.9688V13.5312H123.523V11.1265H129.016V10.8213C129.016 10.2842 128.959 9.83659 128.845 9.47852C128.731 9.1123 128.552 8.83968 128.308 8.66064C128.064 8.48161 127.738 8.39209 127.332 8.39209C126.99 8.39209 126.701 8.46126 126.465 8.59961C126.229 8.73796 126.042 8.95361 125.903 9.24658C125.765 9.53955 125.663 9.92204 125.598 10.394C125.533 10.8579 125.5 11.4154 125.5 12.0664V13.1528C125.5 13.7632 125.553 14.2759 125.659 14.6909C125.765 15.0978 125.92 15.4315 126.123 15.6919C126.335 15.9442 126.591 16.1273 126.892 16.2412C127.193 16.347 127.543 16.3999 127.942 16.3999C128.544 16.3999 129.085 16.2941 129.565 16.0825C130.054 15.8628 130.469 15.5658 130.811 15.1914L132.178 17.2666C131.942 17.5758 131.616 17.8851 131.201 18.1943C130.786 18.5036 130.29 18.7559 129.712 18.9512C129.134 19.1465 128.467 19.2441 127.71 19.2441Z" fill="#F2F5F7"/>
<path d="M2.56641 36.3086L4.28906 30.6602H5.80078L3.25781 37.9668C3.19922 38.123 3.12305 38.293 3.0293 38.4766C2.93555 38.6602 2.8125 38.834 2.66016 38.998C2.51172 39.166 2.32617 39.3008 2.10352 39.4023C1.88086 39.5078 1.61133 39.5605 1.29492 39.5605C1.16992 39.5605 1.04883 39.5488 0.931641 39.5254C0.818359 39.5059 0.710938 39.4844 0.609375 39.4609L0.603516 38.3828C0.642578 38.3867 0.689453 38.3906 0.744141 38.3945C0.802734 38.3984 0.849609 38.4004 0.884766 38.4004C1.11914 38.4004 1.31445 38.3711 1.4707 38.3125C1.62695 38.2578 1.75391 38.168 1.85156 38.043C1.95312 37.918 2.03906 37.75 2.10938 37.5391L2.56641 36.3086ZM1.59375 30.6602L3.09961 35.4062L3.35156 36.8945L2.37305 37.1465L0.0703125 30.6602H1.59375Z" fill="white" fill-opacity="0.7"/>
<path d="M10.377 35.2891L12.2637 30.6602H13.4883L10.8574 37H9.89648L7.27148 30.6602H8.49609L10.377 35.2891ZM8.13281 30.6602V37H6.7207V30.6602H8.13281ZM12.6211 37V30.6602H14.0391V37H12.6211Z" fill="white" fill-opacity="0.7"/>
<path d="M19.9512 33.3086V34.4219H16.6699V33.3086H19.9512ZM17.0801 30.6602V37H15.668V30.6602H17.0801ZM20.9707 30.6602V37H19.5586V30.6602H20.9707Z" fill="white" fill-opacity="0.7"/>
<path d="M23.5254 32.6758H25.3945C25.9414 32.6758 26.4062 32.7676 26.7891 32.9512C27.1719 33.1348 27.4629 33.3906 27.6621 33.7188C27.8652 34.043 27.9668 34.4141 27.9668 34.832C27.9668 35.1406 27.9102 35.4277 27.7969 35.6934C27.6836 35.9551 27.5156 36.1836 27.293 36.3789C27.0742 36.5742 26.8047 36.7266 26.4844 36.8359C26.168 36.9453 25.8047 37 25.3945 37H22.5879V30.6602H24.0059V35.8809H25.3945C25.6758 35.8809 25.9004 35.832 26.0684 35.7344C26.2363 35.6367 26.3574 35.5098 26.4316 35.3535C26.5098 35.1973 26.5488 35.0312 26.5488 34.8555C26.5488 34.6758 26.5098 34.5059 26.4316 34.3457C26.3574 34.1855 26.2363 34.0547 26.0684 33.9531C25.9004 33.8516 25.6758 33.8008 25.3945 33.8008H23.5254V32.6758ZM30.4629 30.6602V37H29.0508V30.6602H30.4629Z" fill="white" fill-opacity="0.7"/>
<path d="M34.9277 37.1172C34.459 37.1172 34.0352 37.041 33.6562 36.8887C33.2812 36.7324 32.9609 36.5156 32.6953 36.2383C32.4336 35.9609 32.2324 35.6348 32.0918 35.2598C31.9512 34.8848 31.8809 34.4805 31.8809 34.0469V33.8125C31.8809 33.3164 31.9531 32.8672 32.0977 32.4648C32.2422 32.0625 32.4434 31.7188 32.7012 31.4336C32.959 31.1445 33.2637 30.9238 33.6152 30.7715C33.9668 30.6191 34.3477 30.543 34.7578 30.543C35.2109 30.543 35.6074 30.6191 35.9473 30.7715C36.2871 30.9238 36.5684 31.1387 36.791 31.416C37.0176 31.6895 37.1855 32.0156 37.2949 32.3945C37.4082 32.7734 37.4648 33.1914 37.4648 33.6484V34.252H32.5664V33.2383H36.0703V33.127C36.0625 32.873 36.0117 32.6348 35.918 32.4121C35.8281 32.1895 35.6895 32.0098 35.502 31.873C35.3145 31.7363 35.0645 31.668 34.752 31.668C34.5176 31.668 34.3086 31.7188 34.125 31.8203C33.9453 31.918 33.7949 32.0605 33.6738 32.248C33.5527 32.4355 33.459 32.6621 33.3926 32.9277C33.3301 33.1895 33.2988 33.4844 33.2988 33.8125V34.0469C33.2988 34.3242 33.3359 34.582 33.4102 34.8203C33.4883 35.0547 33.6016 35.2598 33.75 35.4355C33.8984 35.6113 34.0781 35.75 34.2891 35.8516C34.5 35.9492 34.7402 35.998 35.0098 35.998C35.3496 35.998 35.6523 35.9297 35.918 35.793C36.1836 35.6562 36.4141 35.4629 36.6094 35.2129L37.3535 35.9336C37.2168 36.1328 37.0391 36.3242 36.8203 36.5078C36.6016 36.6875 36.334 36.834 36.0176 36.9473C35.7051 37.0605 35.3418 37.1172 34.9277 37.1172Z" fill="white" fill-opacity="0.7"/>
<path d="M44.4961 30.6602V37H43.0781V30.6602H44.4961ZM46.5762 30.6602V31.7734H41.0332V30.6602H46.5762Z" fill="white" fill-opacity="0.7"/>
<path d="M49.8809 37.1172C49.4121 37.1172 48.9883 37.041 48.6094 36.8887C48.2344 36.7324 47.9141 36.5156 47.6484 36.2383C47.3867 35.9609 47.1855 35.6348 47.0449 35.2598C46.9043 34.8848 46.834 34.4805 46.834 34.0469V33.8125C46.834 33.3164 46.9062 32.8672 47.0508 32.4648C47.1953 32.0625 47.3965 31.7188 47.6543 31.4336C47.9121 31.1445 48.2168 30.9238 48.5684 30.7715C48.9199 30.6191 49.3008 30.543 49.7109 30.543C50.1641 30.543 50.5605 30.6191 50.9004 30.7715C51.2402 30.9238 51.5215 31.1387 51.7441 31.416C51.9707 31.6895 52.1387 32.0156 52.248 32.3945C52.3613 32.7734 52.418 33.1914 52.418 33.6484V34.252H47.5195V33.2383H51.0234V33.127C51.0156 32.873 50.9648 32.6348 50.8711 32.4121C50.7812 32.1895 50.6426 32.0098 50.4551 31.873C50.2676 31.7363 50.0176 31.668 49.7051 31.668C49.4707 31.668 49.2617 31.7188 49.0781 31.8203C48.8984 31.918 48.748 32.0605 48.627 32.248C48.5059 32.4355 48.4121 32.6621 48.3457 32.9277C48.2832 33.1895 48.252 33.4844 48.252 33.8125V34.0469C48.252 34.3242 48.2891 34.582 48.3633 34.8203C48.4414 35.0547 48.5547 35.2598 48.7031 35.4355C48.8516 35.6113 49.0312 35.75 49.2422 35.8516C49.4531 35.9492 49.6934 35.998 49.9629 35.998C50.3027 35.998 50.6055 35.9297 50.8711 35.793C51.1367 35.6562 51.3672 35.4629 51.5625 35.2129L52.3066 35.9336C52.1699 36.1328 51.9922 36.3242 51.7734 36.5078C51.5547 36.6875 51.2871 36.834 50.9707 36.9473C50.6582 37.0605 50.2949 37.1172 49.8809 37.1172Z" fill="white" fill-opacity="0.7"/>
<path d="M54.5977 30.6602L55.8047 32.7637L57.0352 30.6602H58.5879L56.666 33.7715L58.6641 37H57.1113L55.8223 34.8086L54.5332 37H52.9746L54.9668 33.7715L53.0508 30.6602H54.5977Z" fill="white" fill-opacity="0.7"/>
<path d="M63.8848 33.3086V34.4219H60.6035V33.3086H63.8848ZM61.0137 30.6602V37H59.6016V30.6602H61.0137ZM64.9043 30.6602V37H63.4922V30.6602H64.9043Z" fill="white" fill-opacity="0.7"/>
<path d="M66.1406 33.9004V33.7656C66.1406 33.3086 66.207 32.8848 66.3398 32.4941C66.4727 32.0996 66.6641 31.7578 66.9141 31.4688C67.168 31.1758 67.4766 30.9492 67.8398 30.7891C68.207 30.625 68.6211 30.543 69.082 30.543C69.5469 30.543 69.9609 30.625 70.3242 30.7891C70.6914 30.9492 71.002 31.1758 71.2559 31.4688C71.5098 31.7578 71.7031 32.0996 71.8359 32.4941C71.9688 32.8848 72.0352 33.3086 72.0352 33.7656V33.9004C72.0352 34.3574 71.9688 34.7812 71.8359 35.1719C71.7031 35.5625 71.5098 35.9043 71.2559 36.1973C71.002 36.4863 70.6934 36.7129 70.3301 36.877C69.9668 37.0371 69.5547 37.1172 69.0938 37.1172C68.6289 37.1172 68.2129 37.0371 67.8457 36.877C67.4824 36.7129 67.1738 36.4863 66.9199 36.1973C66.666 35.9043 66.4727 35.5625 66.3398 35.1719C66.207 34.7812 66.1406 34.3574 66.1406 33.9004ZM67.5527 33.7656V33.9004C67.5527 34.1855 67.582 34.4551 67.6406 34.709C67.6992 34.9629 67.791 35.1855 67.916 35.377C68.041 35.5684 68.2012 35.7188 68.3965 35.8281C68.5918 35.9375 68.8242 35.9922 69.0938 35.9922C69.3555 35.9922 69.582 35.9375 69.7734 35.8281C69.9688 35.7188 70.1289 35.5684 70.2539 35.377C70.3789 35.1855 70.4707 34.9629 70.5293 34.709C70.5918 34.4551 70.623 34.1855 70.623 33.9004V33.7656C70.623 33.4844 70.5918 33.2188 70.5293 32.9688C70.4707 32.7148 70.377 32.4902 70.248 32.2949C70.123 32.0996 69.9629 31.9473 69.7676 31.8379C69.5762 31.7246 69.3477 31.668 69.082 31.668C68.8164 31.668 68.5859 31.7246 68.3906 31.8379C68.1992 31.9473 68.041 32.0996 67.916 32.2949C67.791 32.4902 67.6992 32.7148 67.6406 32.9688C67.582 33.2188 67.5527 33.4844 67.5527 33.7656Z" fill="white" fill-opacity="0.7"/>
<path d="M77.3848 30.6602V31.7852H74.291V30.6602H77.3848ZM78.4922 30.6602V37H77.0801V30.6602H78.4922ZM73.9453 30.6602H75.3398L75.1699 33.7949C75.1465 34.2598 75.0996 34.6699 75.0293 35.0254C74.9629 35.377 74.873 35.6797 74.7598 35.9336C74.6465 36.1836 74.5078 36.3867 74.3438 36.543C74.1797 36.6992 73.9883 36.8145 73.7695 36.8887C73.5508 36.9629 73.3047 37 73.0312 37H72.5918L72.5859 35.8398L72.8086 35.8223C72.9531 35.8105 73.0781 35.7734 73.1836 35.7109C73.2891 35.6445 73.3789 35.5508 73.4531 35.4297C73.5312 35.3086 73.5938 35.1523 73.6406 34.9609C73.6914 34.7695 73.7305 34.543 73.7578 34.2812C73.7891 34.0195 73.8125 33.7148 73.8281 33.3672L73.9453 30.6602Z" fill="white" fill-opacity="0.7"/>
<path d="M79.7227 33.9004V33.7656C79.7227 33.3086 79.7891 32.8848 79.9219 32.4941C80.0547 32.0996 80.2461 31.7578 80.4961 31.4688C80.75 31.1758 81.0586 30.9492 81.4219 30.7891C81.7891 30.625 82.2031 30.543 82.6641 30.543C83.1289 30.543 83.543 30.625 83.9062 30.7891C84.2734 30.9492 84.584 31.1758 84.8379 31.4688C85.0918 31.7578 85.2852 32.0996 85.418 32.4941C85.5508 32.8848 85.6172 33.3086 85.6172 33.7656V33.9004C85.6172 34.3574 85.5508 34.7812 85.418 35.1719C85.2852 35.5625 85.0918 35.9043 84.8379 36.1973C84.584 36.4863 84.2754 36.7129 83.9121 36.877C83.5488 37.0371 83.1367 37.1172 82.6758 37.1172C82.2109 37.1172 81.7949 37.0371 81.4277 36.877C81.0645 36.7129 80.7559 36.4863 80.502 36.1973C80.248 35.9043 80.0547 35.5625 79.9219 35.1719C79.7891 34.7812 79.7227 34.3574 79.7227 33.9004ZM81.1348 33.7656V33.9004C81.1348 34.1855 81.1641 34.4551 81.2227 34.709C81.2812 34.9629 81.373 35.1855 81.498 35.377C81.623 35.5684 81.7832 35.7188 81.9785 35.8281C82.1738 35.9375 82.4062 35.9922 82.6758 35.9922C82.9375 35.9922 83.1641 35.9375 83.3555 35.8281C83.5508 35.7188 83.7109 35.5684 83.8359 35.377C83.9609 35.1855 84.0527 34.9629 84.1113 34.709C84.1738 34.4551 84.2051 34.1855 84.2051 33.9004V33.7656C84.2051 33.4844 84.1738 33.2188 84.1113 32.9688C84.0527 32.7148 83.959 32.4902 83.8301 32.2949C83.7051 32.0996 83.5449 31.9473 83.3496 31.8379C83.1582 31.7246 82.9297 31.668 82.6641 31.668C82.3984 31.668 82.168 31.7246 81.9727 31.8379C81.7812 31.9473 81.623 32.0996 81.498 32.2949C81.373 32.4902 81.2812 32.7148 81.2227 32.9688C81.1641 33.2188 81.1348 33.4844 81.1348 33.7656Z" fill="white" fill-opacity="0.7"/>
<path d="M91.0195 30.6602V31.7852H88.2539V37H86.8418V30.6602H91.0195Z" fill="white" fill-opacity="0.7"/>
<path d="M93.2988 34.9375L95.7891 30.6602H97.2012V37H95.7891V32.7168L93.2988 37H91.8867V30.6602H93.2988V34.9375Z" fill="white" fill-opacity="0.7"/>
<path d="M100.154 34.9375L102.645 30.6602H104.057V37H102.645V32.7168L100.154 37H98.7422V30.6602H100.154V34.9375Z" fill="white" fill-opacity="0.7"/>
</g></symbol><symbol id="logo" viewBox="0 0 55 55"><g fill="none"><path d="M34 14.7c1.1 0 2.1.7 2.5 1.8H46a2.7 2.7 0 1 1 0 1.8h-9.5a2.7 2.7 0 1 1-2.6-3.6Zm14.6 3.6a1 1 0 1 0 0-1.8 1 1 0 0 0 0 1.8Zm-14.7 0a1 1 0 1 0 0-1.8 1 1 0 0 0 0 1.8Z" fill="#00B2FF"/><path d="M26.6 20.3v-5.6c0-.3 0-.5.3-.7l3.6-3.6c.2-.2.4-.3.7-.3H34a2.7 2.7 0 1 1 0 1.8h-2.6l-3 3.1v5.3a2.7 2.7 0 1 1-2 0Zm10-8.4a1 1 0 1 0 0-1.8 1 1 0 0 0 0 1.8Zm-9.1 12a1 1 0 1 0 0-1.9 1 1 0 0 0 0 1.8ZM10 23.8c.5 0 .9.1 1.3.3l1.5-1.6v-8.8l.3-.6 9.2-9.2c-.2-.3-.3-.7-.3-1.2a2.8 2.8 0 1 1 2.8 2.8c-.5 0-.9-.1-1.2-.3l-9 9v8.7c0 .3 0 .5-.2.7l-1.8 1.8.2 1.2a2.8 2.8 0 1 1-2.7-2.8ZM24.9 3.7a1 1 0 1 0 0-1.9 1 1 0 0 0 0 1.9ZM10 27.5a1 1 0 1 0 0-1.8 1 1 0 0 0 0 1.8ZM1.8 13V9.2c0-.3.1-.5.3-.7l6.4-6.4c.2-.2.4-.3.7-.3h4.7a2.7 2.7 0 1 1 0 1.9H9.5L3.7 9.5V13a2.7 2.7 0 1 1-1.9 0Zm14.7-9.3a1 1 0 1 0 0-1.9 1 1 0 0 0 0 1.9ZM2.8 16.5a1 1 0 1 0 0-1.8 1 1 0 0 0 0 1.8Zm11.9 33.2V36.5a2.7 2.7 0 1 1 3.5-3.5h9.5c.3-1 1.4-1.8 2.6-1.8 1.1 0 2.2.7 2.5 1.8h5.3l3.4-3.4-.3-1.2a2.8 2.8 0 1 1 2.8 2.8l-1.2-.3-3.7 3.7a1 1 0 0 1-.6.2h-5.7a2.7 2.7 0 0 1-2.5 1.9c-1.2 0-2.3-.8-2.6-1.9h-9.5c-.3.8-1 1.4-1.7 1.7v13.2a2.7 2.7 0 1 1-1.8 0ZM44 29.3a1 1 0 1 0 0-1.8 1 1 0 0 0 0 1.8Zm-13.8 5.5a1 1 0 1 0 0-1.8 1 1 0 0 0 0 1.8ZM15.7 53.2a1 1 0 1 0 0-1.9 1 1 0 0 0 0 1.9Zm0-18.4a1 1 0 1 0 0-1.8 1 1 0 0 0 0 1.8Z" fill="#00B2FF"/><path d="M19.3 18.5v-3c0-.2 0-.4.2-.6l11-11c-.1-.3-.3-.7-.3-1.2A3 3 0 0 1 33 0c1.2 0 2.2.8 2.6 1.8h3.8c.5 0 1 .4 1 1V5l3.3 3.4 1.2-.3a2.8 2.8 0 1 1-2.7 2.8c0-.4 0-.8.2-1.2L38.8 6a1 1 0 0 1-.3-.6V3.7h-3a2.7 2.7 0 0 1-3.7 1.5L21.1 16v2.5a2.7 2.7 0 1 1-1.9 0Zm25.6-6.6a1 1 0 1 0 0-1.8 1 1 0 0 0 0 1.8ZM33 3.7a1 1 0 1 0 0-1.9 1 1 0 0 0 0 1.9ZM20.2 22a1 1 0 1 0 0-1.8 1 1 0 0 0 0 1.8Z" fill="#00B2FF"/><path d="M22 25.7c1.2 0 2.2.7 2.6 1.8h10.8l5.2-5.2.6-.3H51l2.2-2.2v-7.5l-7.1-7-1.2.2a2.8 2.8 0 1 1 2.8-2.8c0 .5-.1.9-.3 1.2l7.3 7.4c.2.1.3.4.3.6v8.3l-.3.6-2.7 2.8a1 1 0 0 1-.7.2h-9.7l-5.2 5.3a1 1 0 0 1-.6.2H24.6a2.7 2.7 0 1 1-2.6-3.6ZM45 1.8a1 1 0 1 0 0 1.9 1 1 0 0 0 0-1.9ZM22 29.3a1 1 0 1 0 0-1.8 1 1 0 0 0 0 1.8ZM2.8 22c.4 0 .8.1 1.1.3l3.4-3.4v-5.3a2.7 2.7 0 1 1 1.9 0v5.6c0 .3-.1.5-.3.7l-3.7 3.7a2.7 2.7 0 0 1-1.5 3.7v.7l7 7.1.3.6v1.1c1 .4 1.8 1.4 1.8 2.6 0 1.2-.7 2.2-1.8 2.6v2.2a2.7 2.7 0 1 1-1.8 0V42a2.8 2.8 0 0 1-1.9-2.6c0-1.2.8-2.2 1.9-2.6v-.7l-7.1-7a1 1 0 0 1-.3-.7v-1a2.7 2.7 0 0 1 1-5.4Zm5.5-10a1 1 0 1 0 0-2 1 1 0 0 0 0 2ZM10 47.6a1 1 0 1 0 0-1.9 1 1 0 0 0 0 1.9Zm0-7.4a1 1 0 1 0 0-1.8 1 1 0 0 0 0 1.8ZM2.8 25.7a1 1 0 1 0 0-1.9 1 1 0 0 0 0 1.9Z" fill="#00B2FF"/></g></symbol><symbol id="phone" viewBox="0 0 21 20"><g fill="none">
<path d="M16.3147 12.3893C15.9047 11.9629 15.4101 11.735 14.8859 11.735C14.366 11.735 13.8672 11.9587 13.4402 12.3851L12.1044 13.7147C11.9945 13.6556 11.8846 13.6007 11.7789 13.5459C11.6267 13.4699 11.483 13.3981 11.3604 13.3222C10.1091 12.5286 8.97196 11.4944 7.88132 10.1563C7.35291 9.48936 6.99782 8.92795 6.73995 8.35809C7.08659 8.04151 7.40786 7.71226 7.72068 7.39567C7.83905 7.27748 7.95741 7.15507 8.07578 7.03688C8.9635 6.15044 8.9635 5.00229 8.07578 4.11585L6.92173 2.96348C6.79068 2.83262 6.65541 2.69755 6.52859 2.56247C6.27495 2.30076 6.00863 2.03061 5.73386 1.77734C5.32381 1.37211 4.83345 1.15683 4.31772 1.15683C3.80199 1.15683 3.30317 1.37211 2.88045 1.77734C2.87622 1.78156 2.87622 1.78156 2.87199 1.78578L1.43471 3.23363C0.893623 3.77394 0.585031 4.43243 0.517395 5.19646C0.41594 6.42903 0.779486 7.57718 1.05849 8.32854C1.74331 10.1732 2.76631 11.8827 4.29236 13.7147C6.14391 15.9224 8.37168 17.6657 10.9165 18.8941C11.8888 19.3542 13.1866 19.8987 14.6365 19.9916C14.7253 19.9958 14.8183 20 14.9028 20C15.8793 20 16.6994 19.6496 17.342 18.9532C17.3462 18.9447 17.3547 18.9405 17.3589 18.932C17.5787 18.6661 17.8323 18.4255 18.0987 18.168C18.2804 17.995 18.4664 17.8134 18.6482 17.6235C19.0667 17.1887 19.2865 16.6822 19.2865 16.163C19.2865 15.6396 19.0625 15.1372 18.6355 14.7151L16.3147 12.3893ZM17.8281 16.8341C17.8239 16.8341 17.8239 16.8384 17.8281 16.8341C17.6633 17.0114 17.4942 17.1718 17.3124 17.3491C17.0376 17.6108 16.7586 17.8852 16.4965 18.1933C16.0696 18.6492 15.5665 18.8645 14.9071 18.8645C14.8437 18.8645 14.776 18.8645 14.7126 18.8603C13.4571 18.7801 12.2904 18.2904 11.4153 17.8725C9.02269 16.7159 6.92173 15.0739 5.17586 12.9929C3.73436 11.258 2.77054 9.65398 2.13222 7.93176C1.73908 6.88069 1.59535 6.06179 1.65876 5.28932C1.70103 4.79545 1.89126 4.386 2.24213 4.03565L3.68363 2.59624C3.89077 2.40207 4.11058 2.29654 4.32618 2.29654C4.59249 2.29654 4.80809 2.45694 4.94336 2.59202C4.94759 2.59624 4.95181 2.60046 4.95604 2.60468C5.2139 2.84529 5.45909 3.09433 5.71695 3.36026C5.848 3.49534 5.98327 3.63042 6.11854 3.76971L7.27259 4.92209C7.72068 5.36953 7.72068 5.7832 7.27259 6.23064C7.15 6.35305 7.03164 6.47546 6.90905 6.59366C6.55395 6.95667 6.21577 7.29437 5.848 7.62361C5.83954 7.63206 5.83109 7.63628 5.82686 7.64472C5.46332 8.00774 5.53095 8.36231 5.60704 8.60292C5.61127 8.61558 5.6155 8.62824 5.61972 8.64091C5.91986 9.36694 6.34259 10.0508 6.98514 10.8654L6.98936 10.8697C8.15609 12.3049 9.38623 13.4235 10.7432 14.2803C10.9165 14.3901 11.0941 14.4787 11.2631 14.5632C11.4153 14.6391 11.5591 14.7109 11.6816 14.7869C11.6986 14.7953 11.7155 14.808 11.7324 14.8164C11.8761 14.8882 12.0114 14.922 12.1509 14.922C12.5017 14.922 12.7216 14.7025 12.7934 14.6307L14.2392 13.1871C14.3829 13.0436 14.6112 12.8705 14.8775 12.8705C15.1396 12.8705 15.3552 13.0351 15.4862 13.1786C15.4904 13.1829 15.4904 13.1829 15.4947 13.1871L17.8239 15.5129C18.2593 15.9435 18.2593 16.3867 17.8281 16.8341Z" fill="#00B2FF"/>
<path d="M11.3095 4.75747C12.4171 4.9432 13.4232 5.46662 14.2264 6.26863C15.0295 7.07065 15.5495 8.07528 15.7397 9.18122C15.7862 9.45981 16.0272 9.65399 16.3019 9.65399C16.3358 9.65399 16.3654 9.64977 16.3992 9.64554C16.712 9.59489 16.9191 9.29941 16.8684 8.98705C16.6401 7.64895 16.006 6.42904 15.038 5.4624C14.0699 4.49576 12.8483 3.86258 11.5082 3.63464C11.1954 3.58399 10.9037 3.79083 10.8488 4.09897C10.7938 4.40711 10.9967 4.70681 11.3095 4.75747Z" fill="#00B2FF"/>
<path d="M20.4913 8.82242C20.1151 6.61899 19.0752 4.61395 17.4773 3.01836C15.8794 1.42277 13.8714 0.384369 11.6648 0.00868773C11.3562 -0.0461871 11.0645 0.16487 11.0095 0.473013C10.9588 0.785377 11.1659 1.07664 11.4788 1.13151C13.4487 1.46498 15.2453 2.39785 16.6741 3.82038C18.1029 5.24712 19.0329 7.0411 19.3669 9.00815C19.4134 9.28675 19.6543 9.48092 19.9291 9.48092C19.9629 9.48092 19.9925 9.4767 20.0263 9.47248C20.3349 9.42605 20.5463 9.13057 20.4913 8.82242Z" fill="#00B2FF"/>
</g></symbol><symbol id="stopwatch" viewBox="0 0 35 35"><g fill="none"><path d="m3.8 11.7-1.7-1.5c-1-.8-1-2.1 0-3a3 3 0 0 1 3.5 0L7.5 9c2-1.2 4.3-2 6.7-2.3v-2h-1.7a.8.8 0 0 1-.8-.8V2.1c0-1.2 1-2.1 2.5-2.1h6.6c1.4 0 2.5 1 2.5 2v1.8c0 .4-.3.7-.8.7h-1.7v2c2.4.4 4.7 1.2 6.7 2.4l2-1.6a3 3 0 0 1 3.4 0c1 .8 1 2 0 2.9l-1.7 1.5a13 13 0 0 1 3.8 9C35 28.5 27.1 35 17.5 35S0 28.6 0 20.6c0-3.2 1.4-6.4 3.8-9Zm.6-3.4a1 1 0 0 0-1.2 0c-.3.2-.3.7 0 1L5 10.5l1.2-.9-1.8-1.4ZM21.7 2c0-.4-.4-.7-.9-.7h-6.6c-.5 0-.9.3-.9.7v1h8.4V2Zm-5.9 2.4v1.9h3.4V4.5h-3.4Zm16 3.8a1 1 0 0 0-1.2 0l-1.8 1.4c.5.3.9.6 1.2 1l1.8-1.5c.3-.2.3-.7 0-1ZM17.5 33.6c8.7 0 15.8-5.8 15.8-13 0-3.1-1.4-6.2-3.9-8.5a13 13 0 0 0-2.3-1.8 17.8 17.8 0 0 0-12-2.5 17.8 17.8 0 0 0-9.5 4.3c-2.5 2.3-4 5.4-4 8.5 0 7.2 7.2 13 15.9 13Z" fill="currentColor"/><path d="M17.5 22.7c-1.4 0-2.5-1-2.5-2s.7-1.7 1.7-2v-4.9c0-.4.3-.7.8-.7s.8.3.8.7v5c1 .2 1.7 1 1.7 1.8 0 1.2-1.1 2.1-2.5 2.1Zm0-2.7c-.5 0-.8.3-.8.6 0 .4.3.7.8.7s.8-.3.8-.7c0-.3-.3-.6-.8-.6Z" fill="currentColor"/><path d="M8.6 13.4h.1c1.5-1.2 3.3-2.1 5.3-2.6.4-.1.9.1 1 .5.1.3-.1.7-.6.8-1.4.4-2.8 1-4 1.8l.6.5c.3.2.3.7 0 1a1 1 0 0 1-.6.1 1 1 0 0 1-.6-.2l-.5-.4a8 8 0 0 0-2.6 5h.8c.5 0 .8.4.8.7 0 .4-.3.7-.8.7h-.8a8 8 0 0 0 2.6 5.1l.5-.4a1 1 0 0 1 1.2 0c.3.2.3.7 0 1l-.5.4c1.7 1.2 3.9 2 6.2 2.1v-.7c0-.3.3-.6.8-.6s.8.3.8.6v.7a12 12 0 0 0 6.2-2.1l-.5-.5a.6.6 0 0 1 0-1 1 1 0 0 1 1.2 0l.5.5a8 8 0 0 0 2.6-5h-.8a.8.8 0 0 1-.8-.8c0-.3.3-.6.8-.6h.8a8 8 0 0 0-2.6-5.1l-.5.4a1 1 0 0 1-.6.2 1 1 0 0 1-.6-.2.6.6 0 0 1 0-1l.5-.4c-1.1-.8-2.5-1.4-4-1.8-.4 0-.6-.5-.5-.8.1-.4.6-.6 1-.5a13.3 13.3 0 0 1 5.3 2.6c2.4 2 3.7 4.5 3.7 7.2a9.3 9.3 0 0 1-3.7 7.3 14 14 0 0 1-8.8 3 14 14 0 0 1-8.8-3A9.3 9.3 0 0 1 5 20.6c0-2.7 1.3-5.2 3.6-7.2Z" fill="currentColor"/><path d="M17.5 11.8c-.5 0-.8-.3-.8-.7 0-.4.3-.7.8-.7s.8.3.8.7c0 .4-.3.7-.8.7Z" fill="currentColor"/></g></symbol><symbol id="suppliers" viewBox="0 0 35 35"><g fill="none">
<path d="M31.2638 27.8931C31.639 27.3746 31.8609 26.7384 31.8609 26.0511V21.9434C31.8609 21.5658 31.5548 21.2598 31.1773 21.2598H28.1222C26.7099 21.2598 25.5609 22.4087 25.5609 23.8211V26.0511C25.5609 26.738 25.7826 27.3738 26.1573 27.8921C25.69 27.9679 25.2404 28.1176 24.8211 28.3367C23.8713 26.9195 22.3152 25.9421 20.5271 25.7772C20.5201 25.7752 20.513 25.7738 20.506 25.7721C21.1457 25.0577 21.5357 24.1151 21.5357 23.0829V17.5C21.5357 17.1225 21.2296 16.8164 20.8521 16.8164H16.6999C14.9157 16.8164 13.4643 18.2679 13.4643 20.052V23.0828C13.4643 24.1151 13.8543 25.0576 14.494 25.772C14.487 25.7737 14.4799 25.7752 14.4729 25.7772C12.6846 25.942 11.1284 26.9196 10.1787 28.337C9.75926 28.1179 9.30959 27.9681 8.84249 27.8923C9.21724 27.374 9.43906 26.7381 9.43906 26.0511V21.9434C9.43906 21.5658 9.13295 21.2598 8.75547 21.2598H5.70035C4.28805 21.2598 3.13906 22.4087 3.13906 23.8211V26.0511C3.13906 26.7385 3.36103 27.3746 3.73618 27.8931C1.62025 28.2389 0 30.0791 0 32.2913V34.3164C0 34.694 0.306113 35 0.683594 35H34.3164C34.6939 35 35 34.694 35 34.3164V32.2913C35 30.0791 33.3797 28.2389 31.2638 27.8931ZM4.50625 23.8211C4.50625 23.1626 5.04191 22.627 5.70035 22.627H8.07188V23.4595C8.07188 23.8677 7.73979 24.1998 7.33161 24.1998H4.50625V23.8211ZM4.50625 25.567H7.33161C7.59206 25.567 7.84144 25.5192 8.07188 25.4324V26.0511C8.07188 27.0341 7.27214 27.8339 6.28906 27.8339C5.30599 27.8339 4.50625 27.0341 4.50625 26.0511V25.567ZM6.72978 29.2011L6.28906 29.6418L5.84835 29.2011H6.72978ZM9.19789 31.564V33.6328H1.36719V32.2913C1.36719 30.758 2.48985 29.4826 3.95616 29.2424L5.80569 31.0919C5.93394 31.2201 6.10777 31.2921 6.28906 31.2921C6.47035 31.2921 6.64419 31.2201 6.77243 31.0919L8.62251 29.2417C8.94927 29.2949 9.26352 29.4003 9.55637 29.5544C9.32477 30.1809 9.19789 30.8579 9.19789 31.564ZM17.5001 25.7515C16.0286 25.7515 14.8315 24.5543 14.8315 23.0829V22.1794H18.917C19.37 22.1794 19.7965 22.0637 20.1686 21.8604V23.0829C20.1686 24.5543 18.9715 25.7515 17.5001 25.7515ZM18.6916 27.1186L17.5 28.3102L16.3084 27.1186H18.6916ZM14.8314 20.052H14.8315C14.8315 19.0217 15.6696 18.1836 16.6999 18.1836H20.1685V19.5606C20.1685 20.2508 19.607 20.8123 18.9169 20.8123H14.8314V20.052ZM24.4349 33.6328H23.1055H11.8945H10.5651V32.2656H15.0163C15.3938 32.2656 15.6999 31.9596 15.6999 31.582C15.6999 31.2045 15.3938 30.8984 15.0163 30.8984H10.6151C10.9081 28.9556 12.4633 27.422 14.4158 27.1595L17.0166 29.7603C17.1501 29.8938 17.3251 29.9605 17.5 29.9605C17.6749 29.9605 17.8499 29.8938 17.9834 29.7603L20.5842 27.1595C22.755 27.4513 24.4349 29.3145 24.4349 31.564V33.6328ZM26.9281 23.8211C26.9281 23.1626 27.4638 22.627 28.1222 22.627H30.4937V23.4595C30.4937 23.8677 30.1617 24.1998 29.7535 24.1998H26.9281V23.8211ZM26.9281 25.567H29.7535C30.0139 25.567 30.2633 25.5192 30.4937 25.4324V26.0511C30.4937 27.0341 29.694 27.8339 28.7109 27.8339C27.7279 27.8339 26.9281 27.0341 26.9281 26.0511V25.567ZM29.1516 29.2011L28.7109 29.6418L28.2702 29.2011H29.1516ZM25.802 33.6328V31.564C25.802 30.8578 25.6752 30.1809 25.4435 29.5542C25.7362 29.4 26.0504 29.2947 26.3772 29.2416L28.2275 31.0919C28.3557 31.2201 28.5296 31.2921 28.7109 31.2921C28.8922 31.2921 29.066 31.2201 29.1942 31.0919L31.0438 29.2424C32.5101 29.4826 33.6327 30.758 33.6327 32.2913V33.6328H25.802Z" fill="currentColor"/>
<path d="M20.869 4.4665C20.602 4.19956 20.1693 4.19956 19.9022 4.4665L16.5478 7.82097L15.0977 6.37086C14.8307 6.10385 14.398 6.10385 14.131 6.37079C13.8641 6.63773 13.8641 7.07059 14.131 7.3376L16.0645 9.27107C16.1927 9.39925 16.3665 9.4713 16.5478 9.4713C16.7291 9.4713 16.903 9.39925 17.0312 9.27107L20.869 5.43324C21.136 5.1663 21.136 4.73345 20.869 4.4665Z" fill="currentColor"/>
<path d="M20.295 0.592814C19.9503 0.439074 19.5461 0.593908 19.3923 0.938712C19.2385 1.28352 19.3934 1.68773 19.7382 1.84147C21.7205 2.72556 23.0015 4.69889 23.0015 6.86875C23.0015 9.90227 20.5335 12.3702 17.5 12.3702C14.4664 12.3702 11.9985 9.90227 11.9985 6.86875C11.9985 4.7101 13.2702 2.74087 15.2382 1.85199C15.5823 1.69661 15.7353 1.29165 15.5798 0.947599C15.4244 0.603478 15.0193 0.450558 14.6755 0.605939C12.2188 1.71555 10.6313 4.17382 10.6313 6.86868C10.6313 10.6561 13.7126 13.7374 17.5 13.7374C21.2873 13.7374 24.3686 10.6561 24.3686 6.86875C24.3686 4.15987 22.7696 1.69641 20.295 0.592814Z" fill="currentColor"/>
<path d="M17.5245 0H17.5C17.1225 0 16.8164 0.306045 16.8164 0.683594C16.8164 1.06114 17.1225 1.36719 17.5 1.36719H17.518C17.5191 1.36719 17.5202 1.36719 17.5213 1.36719C17.8974 1.36719 18.2031 1.06326 18.2049 0.686807C18.2066 0.309258 17.902 0.00177734 17.5245 0Z" fill="currentColor"/>
<path d="M17.9832 31.0987C17.8562 30.9716 17.6798 30.8984 17.5 30.8984C17.3202 30.8984 17.1438 30.9716 17.0167 31.0987C16.8896 31.2259 16.8164 31.4022 16.8164 31.582C16.8164 31.7618 16.8895 31.9382 17.0167 32.0653C17.1439 32.1925 17.3202 32.2656 17.5 32.2656C17.6798 32.2656 17.8562 32.1925 17.9832 32.0653C18.1104 31.9382 18.1836 31.7618 18.1836 31.582C18.1836 31.4022 18.1104 31.2259 17.9832 31.0987Z" fill="currentColor"/>
</g></symbol><symbol id="tag" viewBox="0 0 35 35"><g fill="none"><path d="M11.07 8.58a.69.69 0 0 0-.97 0 .69.69 0 0 0 0 .97.69.69 0 0 0 .97 0 .69.69 0 0 0 0-.97Z" fill="currentColor"/><path d="M34.8 2.86 33.95 2l.85-.84a.68.68 0 0 0-.97-.97l-.84.84-.83-.83a.68.68 0 0 0-.49-.2H20.1a3.4 3.4 0 0 0-2.42 1l-5.77 5.77a.68.68 0 0 0 .96.97l5.78-5.78c.39-.39.9-.6 1.45-.6H31.4l.63.64-2.53 2.54a2.8 2.8 0 1 0 .96.97L33 2.98l.64.64V14.9c0 .55-.22 1.06-.6 1.45L16.33 33.03a2.04 2.04 0 0 1-2.9 0L1.97 21.56a2.04 2.04 0 0 1 0-2.9l7.37-7.37a.68.68 0 0 0-.97-.97L1 17.69a3.4 3.4 0 0 0 0 4.84L12.47 34a3.41 3.41 0 0 0 4.84 0L34 17.32c.65-.65 1-1.5 1-2.42L35 3.34a.68.68 0 0 0-.2-.48Zm-5.74 5.1a1.42 1.42 0 0 1-2.03 0 1.43 1.43 0 0 1 1.43-2.38l-.8.79a.68.68 0 0 0 .97.96l.8-.78c.13.48.01 1.03-.37 1.41Z" fill="currentColor"/><path d="M29.2 13.76 21.23 5.8a2.71 2.71 0 0 0-3.82 0L4.8 18.4a2.69 2.69 0 0 0 0 3.83l7.97 7.97a2.69 2.69 0 0 0 3.82 0L29.2 17.6a2.69 2.69 0 0 0 0-3.84Zm-.97 2.87-12.6 12.6a1.33 1.33 0 0 1-1.9 0l-7.96-7.96a1.33 1.33 0 0 1 0-1.9l12.6-12.6a1.34 1.34 0 0 1 1.9 0l7.96 7.96a1.33 1.33 0 0 1 0 1.9Z" fill="currentColor"/><path d="M22.29 13.68a.68.68 0 0 0-.97-.97l-.39.4a2.63 2.63 0 0 0-3.25.28c-.5.5-.75 1.18-.72 1.9a2.88 2.88 0 0 0 .85 1.9c.55.55.62 1.38.14 1.85-.47.48-1.3.42-1.86-.13-.55-.55-.6-1.39-.13-1.86a.68.68 0 0 0-.97-.97c-.85.85-.94 2.2-.29 3.25l-.47.47a.68.68 0 0 0 .97.97l.47-.47c.46.29.97.43 1.48.43.65 0 1.29-.24 1.77-.72 1-1 .94-2.7-.14-3.79a1.51 1.51 0 0 1-.45-1c-.02-.33.1-.64.31-.86.48-.47 1.31-.41 1.86.14s.61 1.38.14 1.86a.68.68 0 0 0 .97.96c.85-.85.94-2.2.29-3.25l.39-.4ZM15.37 25.01l-3.5-3.51a.68.68 0 0 0-.98.97l3.51 3.5a.68.68 0 0 0 .97 0 .68.68 0 0 0 0-.96ZM9.99 19.63a.69.69 0 0 0-.97 0 .69.69 0 0 0 0 .96.69.69 0 0 0 .97 0 .69.69 0 0 0 0-.96Z" fill="currentColor"/></g></symbol></svg>